<?xml version="1.0" encoding="UTF-8"?> <svg xmlns="http://www.w3.org/2000/svg" xmlns:xlink="http://www.w3.org/1999/xlink" width="1152" zoomAndPan="magnify" viewBox="0 0 864 863.999991" height="1152" preserveAspectRatio="xMidYMid meet" version="1.0"><defs><g></g><clipPath id="2e21c10b5e"><path d="M 432 0 C 193.414062 0 0 193.414062 0 432 C 0 670.585938 193.414062 864 432 864 C 670.585938 864 864 670.585938 864 432 C 864 193.414062 670.585938 0 432 0 Z M 432 0 " clip-rule="nonzero"></path></clipPath><clipPath id="73336d72f2"><path d="M 125.0625 125.0625 L 739 125.0625 L 739 739 L 125.0625 739 Z M 125.0625 125.0625 " clip-rule="nonzero"></path></clipPath></defs><g clip-path="url(#2e21c10b5e)"><rect x="-86.4" width="1036.8" fill="#fffaf2" y="-86.399999" height="1036.79999" fill-opacity="1"></rect></g><path fill="#c58ddd" d="M 860.441406 503.453125 C 862.222656 445.1875 862.222656 445.082031 864 386.835938 L 773.78125 351.652344 C 760.765625 317.292969 754.257812 300.046875 741.242188 265.6875 L 785.472656 179.503906 C 745.515625 137.179688 745.410156 137.074219 705.453125 94.621094 L 616.859375 133.492188 L 533.171875 95.707031 L 503.453125 3.558594 L 386.945312 0 L 351.652344 90.21875 C 317.398438 103.234375 300.046875 109.742188 265.816406 122.757812 L 179.632812 78.570312 C 137.179688 118.394531 137.074219 118.527344 94.621094 158.460938 L 133.492188 247.140625 C 118.527344 280.546875 110.914062 297.441406 95.8125 330.828125 L 3.558594 360.566406 C 1.777344 418.8125 1.777344 418.917969 0 477.054688 L 90.21875 512.371094 C 103.234375 546.601562 109.742188 563.953125 122.757812 598.3125 L 78.570312 684.386719 C 118.527344 726.820312 118.632812 726.949219 158.460938 769.378906 L 247.140625 730.507812 C 280.675781 745.496094 297.550781 753.085938 330.957031 768.183594 L 360.566406 860.441406 L 477.226562 864 L 512.414062 773.78125 C 546.773438 760.765625 563.996094 754.257812 598.355469 741.242188 L 684.539062 785.472656 L 769.421875 705.582031 L 730.550781 616.902344 C 745.734375 583.5 753.261719 566.492188 768.359375 533.085938 Z M 432 685.472656 C 427.851562 685.472656 423.707031 685.371094 419.5625 685.167969 C 415.421875 684.964844 411.285156 684.65625 407.160156 684.25 C 403.03125 683.84375 398.914062 683.335938 394.8125 682.726562 C 390.710938 682.117188 386.625 681.410156 382.554688 680.597656 C 378.488281 679.789062 374.441406 678.882812 370.417969 677.871094 C 366.394531 676.863281 362.398438 675.757812 358.429688 674.554688 C 354.460938 673.351562 350.523438 672.046875 346.617188 670.652344 C 342.714844 669.253906 338.84375 667.761719 335.011719 666.171875 C 331.179688 664.585938 327.390625 662.90625 323.640625 661.132812 C 319.890625 659.359375 316.1875 657.492188 312.53125 655.539062 C 308.871094 653.582031 305.265625 651.539062 301.707031 649.40625 C 298.148438 647.273438 294.648438 645.054688 291.199219 642.75 C 287.75 640.445312 284.359375 638.058594 281.027344 635.585938 C 277.695312 633.117188 274.429688 630.5625 271.222656 627.933594 C 268.015625 625.300781 264.875 622.59375 261.804688 619.808594 C 258.730469 617.019531 255.726562 614.160156 252.792969 611.230469 C 249.863281 608.296875 247.003906 605.292969 244.21875 602.21875 C 241.433594 599.144531 238.722656 596.003906 236.09375 592.800781 C 233.460938 589.59375 230.910156 586.324219 228.441406 582.992188 C 225.96875 579.660156 223.582031 576.269531 221.277344 572.820312 C 218.972656 569.371094 216.753906 565.871094 214.621094 562.3125 C 212.492188 558.753906 210.445312 555.144531 208.492188 551.488281 C 206.535156 547.828125 204.671875 544.125 202.898438 540.375 C 201.125 536.625 199.445312 532.835938 197.859375 529.003906 C 196.273438 525.171875 194.78125 521.300781 193.382812 517.398438 C 191.984375 513.492188 190.683594 509.554688 189.480469 505.585938 C 188.277344 501.617188 187.171875 497.621094 186.164062 493.597656 C 185.15625 489.574219 184.246094 485.527344 183.4375 481.457031 C 182.628906 477.390625 181.921875 473.304688 181.3125 469.203125 C 180.703125 465.097656 180.195312 460.984375 179.789062 456.855469 C 179.382812 452.726562 179.078125 448.59375 178.875 444.449219 C 178.671875 440.308594 178.570312 436.164062 178.570312 432.015625 C 178.570312 427.867188 178.671875 423.722656 178.875 419.578125 C 179.078125 415.4375 179.382812 411.300781 179.792969 407.171875 C 180.199219 403.046875 180.707031 398.929688 181.3125 394.828125 C 181.921875 390.722656 182.632812 386.636719 183.441406 382.570312 C 184.25 378.503906 185.160156 374.457031 186.167969 370.433594 C 187.175781 366.410156 188.28125 362.414062 189.484375 358.445312 C 190.6875 354.476562 191.988281 350.539062 193.386719 346.632812 C 194.785156 342.726562 196.277344 338.859375 197.863281 335.027344 C 199.453125 331.195312 201.132812 327.402344 202.90625 323.65625 C 204.679688 319.90625 206.542969 316.199219 208.5 312.542969 C 210.453125 308.886719 212.496094 305.277344 214.628906 301.71875 C 216.761719 298.160156 218.980469 294.660156 221.285156 291.210938 C 223.589844 287.761719 225.976562 284.371094 228.449219 281.039062 C 230.917969 277.707031 233.46875 274.4375 236.101562 271.234375 C 238.734375 268.027344 241.441406 264.886719 244.226562 261.8125 C 247.011719 258.742188 249.871094 255.738281 252.804688 252.804688 C 255.738281 249.871094 258.742188 247.011719 261.8125 244.226562 C 264.886719 241.441406 268.027344 238.734375 271.234375 236.101562 C 274.4375 233.46875 277.707031 230.917969 281.039062 228.449219 C 284.371094 225.976562 287.761719 223.589844 291.210938 221.285156 C 294.660156 218.980469 298.160156 216.761719 301.71875 214.628906 C 305.277344 212.496094 308.886719 210.453125 312.542969 208.5 C 316.199219 206.542969 319.90625 204.679688 323.65625 202.90625 C 327.402344 201.132812 331.195312 199.453125 335.027344 197.863281 C 338.859375 196.277344 342.726562 194.785156 346.632812 193.386719 C 350.539062 191.988281 354.476562 190.6875 358.445312 189.484375 C 362.414062 188.28125 366.410156 187.175781 370.433594 186.167969 C 374.457031 185.160156 378.503906 184.25 382.570312 183.441406 C 386.636719 182.632812 390.722656 181.921875 394.828125 181.3125 C 398.929688 180.707031 403.046875 180.199219 407.171875 179.792969 C 411.300781 179.382812 415.4375 179.078125 419.578125 178.875 C 423.722656 178.671875 427.867188 178.570312 432.015625 178.570312 C 436.164062 178.570312 440.308594 178.671875 444.449219 178.875 C 448.59375 179.078125 452.726562 179.382812 456.855469 179.789062 C 460.984375 180.195312 465.097656 180.703125 469.203125 181.3125 C 473.304688 181.921875 477.390625 182.628906 481.457031 183.4375 C 485.527344 184.246094 489.574219 185.15625 493.597656 186.164062 C 497.621094 187.171875 501.617188 188.277344 505.585938 189.480469 C 509.554688 190.683594 513.492188 191.984375 517.398438 193.382812 C 521.300781 194.78125 525.171875 196.273438 529.003906 197.859375 C 532.835938 199.445312 536.625 201.125 540.375 202.898438 C 544.125 204.671875 547.828125 206.535156 551.488281 208.492188 C 555.144531 210.445312 558.753906 212.492188 562.3125 214.621094 C 565.867188 216.753906 569.371094 218.972656 572.820312 221.277344 C 576.269531 223.582031 579.660156 225.96875 582.992188 228.441406 C 586.324219 230.910156 589.59375 233.460938 592.800781 236.09375 C 596.003906 238.722656 599.144531 241.433594 602.21875 244.21875 C 605.292969 247.003906 608.296875 249.863281 611.230469 252.792969 C 614.160156 255.726562 617.019531 258.730469 619.808594 261.804688 C 622.59375 264.875 625.300781 268.015625 627.933594 271.222656 C 630.5625 274.429688 633.117188 277.695312 635.585938 281.027344 C 638.058594 284.359375 640.445312 287.75 642.75 291.199219 C 645.054688 294.648438 647.273438 298.148438 649.40625 301.707031 C 651.539062 305.265625 653.582031 308.871094 655.539062 312.53125 C 657.492188 316.1875 659.359375 319.890625 661.132812 323.640625 C 662.90625 327.390625 664.585938 331.179688 666.171875 335.011719 C 667.761719 338.84375 669.253906 342.714844 670.652344 346.617188 C 672.046875 350.523438 673.351562 354.460938 674.554688 358.429688 C 675.757812 362.398438 676.863281 366.394531 677.871094 370.417969 C 678.882812 374.441406 679.789062 378.488281 680.597656 382.554688 C 681.410156 386.625 682.117188 390.710938 682.726562 394.8125 C 683.335938 398.914062 683.84375 403.03125 684.25 407.160156 C 684.65625 411.285156 684.964844 415.421875 685.167969 419.5625 C 685.371094 423.707031 685.472656 427.851562 685.472656 432 C 685.472656 436.148438 685.371094 440.292969 685.164062 444.4375 C 684.960938 448.578125 684.652344 452.714844 684.246094 456.84375 C 683.839844 460.96875 683.332031 465.085938 682.722656 469.1875 C 682.113281 473.292969 681.402344 477.378906 680.59375 481.445312 C 679.78125 485.515625 678.871094 489.558594 677.863281 493.582031 C 676.855469 497.605469 675.75 501.601562 674.542969 505.570312 C 673.339844 509.542969 672.039062 513.480469 670.640625 517.382812 C 669.242188 521.289062 667.75 525.15625 666.160156 528.988281 C 664.574219 532.820312 662.890625 536.613281 661.117188 540.363281 C 659.34375 544.113281 657.480469 547.816406 655.523438 551.472656 C 653.570312 555.132812 651.523438 558.738281 649.390625 562.296875 C 647.257812 565.855469 645.039062 569.359375 642.734375 572.808594 C 640.429688 576.253906 638.042969 579.644531 635.570312 582.976562 C 633.101562 586.308594 630.550781 589.578125 627.917969 592.785156 C 625.285156 595.992188 622.578125 599.128906 619.792969 602.203125 C 617.007812 605.277344 614.148438 608.28125 611.214844 611.214844 C 608.28125 614.148438 605.277344 617.007812 602.203125 619.792969 C 599.128906 622.578125 595.992188 625.285156 592.785156 627.917969 C 589.578125 630.550781 586.308594 633.101562 582.976562 635.570312 C 579.644531 638.042969 576.253906 640.429688 572.808594 642.734375 C 569.359375 645.039062 565.855469 647.257812 562.296875 649.390625 C 558.738281 651.523438 555.132812 653.570312 551.472656 655.523438 C 547.816406 657.480469 544.113281 659.34375 540.363281 661.117188 C 536.613281 662.890625 532.820312 664.574219 528.988281 666.160156 C 525.15625 667.75 521.289062 669.242188 517.382812 670.640625 C 513.480469 672.039062 509.542969 673.339844 505.570312 674.542969 C 501.601562 675.75 497.605469 676.855469 493.582031 677.863281 C 489.558594 678.871094 485.515625 679.78125 481.445312 680.59375 C 477.378906 681.402344 473.292969 682.113281 469.1875 682.722656 C 465.085938 683.332031 460.96875 683.839844 456.84375 684.246094 C 452.714844 684.652344 448.578125 684.960938 444.4375 685.164062 C 440.292969 685.371094 436.148438 685.472656 432 685.472656 Z M 432 685.472656 " fill-opacity="1" fill-rule="nonzero"></path><g clip-path="url(#73336d72f2)"><path fill="#fffaf2" d="M 738.800781 432 C 738.800781 262.515625 601.414062 125.128906 431.929688 125.128906 C 262.445312 125.128906 125.0625 262.515625 125.0625 432 C 125.0625 599.773438 259.714844 736.152344 426.839844 738.867188 L 738.800781 738.867188 L 642.394531 655.347656 C 646.191406 651.777344 649.898438 648.113281 653.507812 644.351562 C 657.117188 640.589844 660.632812 636.742188 664.046875 632.800781 C 667.460938 628.863281 670.769531 624.839844 673.980469 620.730469 C 677.1875 616.621094 680.289062 612.433594 683.285156 608.164062 C 686.277344 603.898438 689.160156 599.554688 691.933594 595.140625 C 694.707031 590.726562 697.363281 586.246094 699.910156 581.695312 C 702.453125 577.144531 704.878906 572.53125 707.183594 567.855469 C 709.492188 563.179688 711.679688 558.449219 713.746094 553.664062 C 715.8125 548.878906 717.753906 544.042969 719.574219 539.15625 C 721.390625 534.269531 723.085938 529.34375 724.652344 524.371094 C 726.21875 519.398438 727.65625 514.390625 728.96875 509.34375 C 730.277344 504.296875 731.460938 499.222656 732.511719 494.117188 C 733.5625 489.011719 734.484375 483.878906 735.273438 478.726562 C 736.0625 473.574219 736.71875 468.40625 737.242188 463.21875 C 737.769531 458.03125 738.160156 452.835938 738.421875 447.628906 C 738.679688 442.421875 738.808594 437.210938 738.800781 432 Z M 738.800781 432 " fill-opacity="1" fill-rule="nonzero"></path></g><g fill="#00467f" fill-opacity="1"><g transform="translate(157.364094, 552.489137)"><g><path d="M 3.046875 0 L 36.90625 -92.578125 L 55.953125 -92.578125 L 89.8125 0 L 71.8125 0 L 64.40625 -21.421875 L 28.3125 -21.421875 L 20.765625 0 Z M 32.9375 -34.65625 L 59.78125 -34.65625 L 46.296875 -73.140625 Z M 32.9375 -34.65625 "></path></g></g></g><g fill="#00467f" fill-opacity="1"><g transform="translate(238.844054, 552.489137)"><g><path d="M 40.734375 1.59375 C 34.035156 1.59375 28.128906 0.140625 23.015625 -2.765625 C 17.898438 -5.679688 13.863281 -9.738281 10.90625 -14.9375 C 7.957031 -20.144531 6.484375 -26.097656 6.484375 -32.796875 C 6.484375 -39.503906 7.957031 -45.457031 10.90625 -50.65625 C 13.863281 -55.863281 17.898438 -59.921875 23.015625 -62.828125 C 28.128906 -65.734375 34.035156 -67.1875 40.734375 -67.1875 C 49.109375 -67.1875 56.160156 -65.003906 61.890625 -60.640625 C 67.628906 -56.273438 71.289062 -50.257812 72.875 -42.59375 L 55.015625 -42.59375 C 54.140625 -45.757812 52.398438 -48.25 49.796875 -50.0625 C 47.191406 -51.875 44.128906 -52.78125 40.609375 -52.78125 C 35.929688 -52.78125 31.960938 -51.015625 28.703125 -47.484375 C 25.441406 -43.953125 23.8125 -39.054688 23.8125 -32.796875 C 23.8125 -26.535156 25.441406 -21.640625 28.703125 -18.109375 C 31.960938 -14.585938 35.929688 -12.828125 40.609375 -12.828125 C 44.128906 -12.828125 47.191406 -13.707031 49.796875 -15.46875 C 52.398438 -17.238281 54.140625 -19.753906 55.015625 -23.015625 L 72.875 -23.015625 C 71.289062 -15.609375 67.628906 -9.65625 61.890625 -5.15625 C 56.160156 -0.65625 49.109375 1.59375 40.734375 1.59375 Z M 40.734375 1.59375 "></path></g></g></g><g fill="#00467f" fill-opacity="1"><g transform="translate(306.964469, 552.489137)"><g><path d="M 31.21875 1.59375 C 25.570312 1.59375 20.941406 0.691406 17.328125 -1.109375 C 13.710938 -2.921875 11.019531 -5.328125 9.25 -8.328125 C 7.488281 -11.328125 6.609375 -14.632812 6.609375 -18.25 C 6.609375 -24.332031 8.988281 -29.269531 13.75 -33.0625 C 18.507812 -36.851562 25.65625 -38.75 35.1875 -38.75 L 51.84375 -38.75 L 51.84375 -40.34375 C 51.84375 -44.84375 50.5625 -48.148438 48 -50.265625 C 45.445312 -52.378906 42.273438 -53.4375 38.484375 -53.4375 C 35.046875 -53.4375 32.046875 -52.617188 29.484375 -50.984375 C 26.929688 -49.359375 25.347656 -46.957031 24.734375 -43.78125 L 8.203125 -43.78125 C 8.640625 -48.539062 10.242188 -52.679688 13.015625 -56.203125 C 15.796875 -59.734375 19.390625 -62.445312 23.796875 -64.34375 C 28.210938 -66.238281 33.15625 -67.1875 38.625 -67.1875 C 47.96875 -67.1875 55.328125 -64.847656 60.703125 -60.171875 C 66.085938 -55.503906 68.78125 -48.894531 68.78125 -40.34375 L 68.78125 0 L 54.359375 0 L 52.78125 -10.578125 C 50.832031 -7.054688 48.117188 -4.144531 44.640625 -1.84375 C 41.160156 0.445312 36.6875 1.59375 31.21875 1.59375 Z M 35.046875 -11.640625 C 39.898438 -11.640625 43.671875 -13.222656 46.359375 -16.390625 C 49.046875 -19.566406 50.742188 -23.492188 51.453125 -28.171875 L 37.03125 -28.171875 C 32.53125 -28.171875 29.3125 -27.351562 27.375 -25.71875 C 25.4375 -24.09375 24.46875 -22.085938 24.46875 -19.703125 C 24.46875 -17.148438 25.4375 -15.164062 27.375 -13.75 C 29.3125 -12.34375 31.867188 -11.640625 35.046875 -11.640625 Z M 35.046875 -11.640625 "></path></g></g></g><g fill="#00467f" fill-opacity="1"><g transform="translate(372.042599, 552.489137)"><g><path d="M 38.75 1.59375 C 32.582031 1.59375 27.070312 0.09375 22.21875 -2.90625 C 17.375 -5.90625 13.539062 -10.003906 10.71875 -15.203125 C 7.894531 -20.410156 6.484375 -26.320312 6.484375 -32.9375 C 6.484375 -39.550781 7.894531 -45.4375 10.71875 -50.59375 C 13.539062 -55.75 17.375 -59.800781 22.21875 -62.75 C 27.070312 -65.707031 32.582031 -67.1875 38.75 -67.1875 C 43.6875 -67.1875 48.003906 -66.257812 51.703125 -64.40625 C 55.410156 -62.5625 58.410156 -59.960938 60.703125 -56.609375 L 60.703125 -95.234375 L 77.640625 -95.234375 L 77.640625 0 L 62.5625 0 L 60.703125 -9.390625 C 58.585938 -6.484375 55.789062 -3.925781 52.3125 -1.71875 C 48.832031 0.488281 44.3125 1.59375 38.75 1.59375 Z M 42.328125 -13.21875 C 47.796875 -13.21875 52.269531 -15.046875 55.75 -18.703125 C 59.226562 -22.367188 60.96875 -27.066406 60.96875 -32.796875 C 60.96875 -38.535156 59.226562 -43.234375 55.75 -46.890625 C 52.269531 -50.546875 47.796875 -52.375 42.328125 -52.375 C 36.941406 -52.375 32.484375 -50.566406 28.953125 -46.953125 C 25.429688 -43.335938 23.671875 -38.664062 23.671875 -32.9375 C 23.671875 -27.207031 25.429688 -22.488281 28.953125 -18.78125 C 32.484375 -15.070312 36.941406 -13.21875 42.328125 -13.21875 Z M 42.328125 -13.21875 "></path></g></g></g><g fill="#00467f" fill-opacity="1"><g transform="translate(447.041187, 552.489137)"><g><path d="M 40.46875 1.59375 C 33.851562 1.59375 27.988281 0.179688 22.875 -2.640625 C 17.757812 -5.460938 13.75 -9.429688 10.84375 -14.546875 C 7.9375 -19.660156 6.484375 -25.566406 6.484375 -32.265625 C 6.484375 -39.054688 7.914062 -45.097656 10.78125 -50.390625 C 13.644531 -55.679688 17.609375 -59.800781 22.671875 -62.75 C 27.742188 -65.707031 33.722656 -67.1875 40.609375 -67.1875 C 47.046875 -67.1875 52.734375 -65.773438 57.671875 -62.953125 C 62.609375 -60.128906 66.460938 -56.269531 69.234375 -51.375 C 72.015625 -46.488281 73.40625 -41.046875 73.40625 -35.046875 C 73.40625 -34.078125 73.382812 -33.0625 73.34375 -32 C 73.300781 -30.945312 73.234375 -29.847656 73.140625 -28.703125 L 23.28125 -28.703125 C 23.632812 -23.585938 25.421875 -19.570312 28.640625 -16.65625 C 31.859375 -13.75 35.757812 -12.296875 40.34375 -12.296875 C 43.78125 -12.296875 46.664062 -13.066406 49 -14.609375 C 51.34375 -16.160156 53.085938 -18.171875 54.234375 -20.640625 L 71.421875 -20.640625 C 70.191406 -16.492188 68.140625 -12.722656 65.265625 -9.328125 C 62.398438 -5.929688 58.875 -3.257812 54.6875 -1.3125 C 50.5 0.625 45.757812 1.59375 40.46875 1.59375 Z M 40.609375 -53.4375 C 36.460938 -53.4375 32.800781 -52.265625 29.625 -49.921875 C 26.445312 -47.585938 24.421875 -44.039062 23.546875 -39.28125 L 56.21875 -39.28125 C 55.945312 -43.601562 54.359375 -47.039062 51.453125 -49.59375 C 48.546875 -52.15625 44.929688 -53.4375 40.609375 -53.4375 Z M 40.609375 -53.4375 "></path></g></g></g><g fill="#00467f" fill-opacity="1"><g transform="translate(514.897017, 552.489137)"><g><path d="M 8.59375 0 L 8.59375 -65.609375 L 23.546875 -65.609375 L 25 -56.734375 C 27.113281 -59.910156 29.910156 -62.445312 33.390625 -64.34375 C 36.878906 -66.238281 40.914062 -67.1875 45.5 -67.1875 C 55.632812 -67.1875 62.820312 -63.265625 67.0625 -55.421875 C 69.4375 -59.035156 72.628906 -61.898438 76.640625 -64.015625 C 80.660156 -66.128906 85.050781 -67.1875 89.8125 -67.1875 C 98.363281 -67.1875 104.929688 -64.628906 109.515625 -59.515625 C 114.097656 -54.398438 116.390625 -46.90625 116.390625 -37.03125 L 116.390625 0 L 99.46875 0 L 99.46875 -35.453125 C 99.46875 -41.085938 98.382812 -45.40625 96.21875 -48.40625 C 94.0625 -51.40625 90.734375 -52.90625 86.234375 -52.90625 C 81.648438 -52.90625 77.96875 -51.226562 75.1875 -47.875 C 72.414062 -44.53125 71.03125 -39.859375 71.03125 -33.859375 L 71.03125 0 L 54.09375 0 L 54.09375 -35.453125 C 54.09375 -41.085938 52.988281 -45.40625 50.78125 -48.40625 C 48.582031 -51.40625 45.191406 -52.90625 40.609375 -52.90625 C 36.109375 -52.90625 32.46875 -51.226562 29.6875 -47.875 C 26.914062 -44.53125 25.53125 -39.859375 25.53125 -33.859375 L 25.53125 0 Z M 8.59375 0 "></path></g></g></g><g fill="#00467f" fill-opacity="1"><g transform="translate(627.593308, 552.489137)"><g><path d="M 16.796875 29.09375 L 32.015625 -4.359375 L 28.046875 -4.359375 L 2.515625 -65.609375 L 20.890625 -65.609375 L 39.28125 -19.4375 L 58.46875 -65.609375 L 76.453125 -65.609375 L 34.78125 29.09375 Z M 16.796875 29.09375 "></path></g></g></g><g fill="#00467f" fill-opacity="1"><g transform="translate(214.083002, 361.421824)"><g><path d="M 19.75 0 L 2.34375 -65.828125 L 15.234375 -65.828125 L 27.078125 -13.453125 L 41 -65.828125 L 54.265625 -65.828125 L 67.8125 -13.453125 L 79.65625 -65.828125 L 92.640625 -65.828125 L 74.765625 0 L 60.46875 0 L 47.40625 -48.8125 L 33.953125 0 Z M 19.75 0 "></path></g></g></g><g fill="#00467f" fill-opacity="1"><g transform="translate(305.862874, 361.421824)"><g><path d="M 28.5 1.125 C 23.976562 1.125 19.914062 0.09375 16.3125 -1.96875 C 12.707031 -4.039062 9.851562 -6.910156 7.75 -10.578125 C 5.65625 -14.242188 4.609375 -18.492188 4.609375 -23.328125 C 4.609375 -28.148438 5.671875 -32.394531 7.796875 -36.0625 C 9.929688 -39.726562 12.800781 -42.597656 16.40625 -44.671875 C 20.007812 -46.742188 24.070312 -47.78125 28.59375 -47.78125 C 33.039062 -47.78125 37.066406 -46.742188 40.671875 -44.671875 C 44.273438 -42.597656 47.128906 -39.726562 49.234375 -36.0625 C 51.335938 -32.394531 52.390625 -28.148438 52.390625 -23.328125 C 52.390625 -18.492188 51.335938 -14.242188 49.234375 -10.578125 C 47.128906 -6.910156 44.257812 -4.039062 40.625 -1.96875 C 36.988281 0.09375 32.945312 1.125 28.5 1.125 Z M 28.5 -9.3125 C 31.632812 -9.3125 34.359375 -10.484375 36.671875 -12.828125 C 38.992188 -15.179688 40.15625 -18.679688 40.15625 -23.328125 C 40.15625 -27.960938 38.992188 -31.457031 36.671875 -33.8125 C 34.359375 -36.164062 31.664062 -37.34375 28.59375 -37.34375 C 25.394531 -37.34375 22.648438 -36.164062 20.359375 -33.8125 C 18.066406 -31.457031 16.921875 -27.960938 16.921875 -23.328125 C 16.921875 -18.679688 18.066406 -15.179688 20.359375 -12.828125 C 22.648438 -10.484375 25.363281 -9.3125 28.5 -9.3125 Z M 28.5 -9.3125 "></path></g></g></g><g fill="#00467f" fill-opacity="1"><g transform="translate(359.65156, 361.421824)"><g><path d="M 6.109375 0 L 6.109375 -46.640625 L 16.734375 -46.640625 L 17.78125 -40.34375 C 19.28125 -42.601562 21.269531 -44.40625 23.75 -45.75 C 26.226562 -47.101562 29.097656 -47.78125 32.359375 -47.78125 C 39.566406 -47.78125 44.675781 -44.988281 47.6875 -39.40625 C 49.375 -41.976562 51.644531 -44.015625 54.5 -45.515625 C 57.351562 -47.023438 60.472656 -47.78125 63.859375 -47.78125 C 69.941406 -47.78125 74.613281 -45.957031 77.875 -42.3125 C 81.132812 -38.675781 82.765625 -33.347656 82.765625 -26.328125 L 82.765625 0 L 70.71875 0 L 70.71875 -25.203125 C 70.71875 -29.210938 69.945312 -32.285156 68.40625 -34.421875 C 66.875 -36.554688 64.507812 -37.625 61.3125 -37.625 C 58.050781 -37.625 55.429688 -36.429688 53.453125 -34.046875 C 51.484375 -31.660156 50.5 -28.335938 50.5 -24.078125 L 50.5 0 L 38.46875 0 L 38.46875 -25.203125 C 38.46875 -29.210938 37.679688 -32.285156 36.109375 -34.421875 C 34.546875 -36.554688 32.132812 -37.625 28.875 -37.625 C 25.675781 -37.625 23.085938 -36.429688 21.109375 -34.046875 C 19.140625 -31.660156 18.15625 -28.335938 18.15625 -24.078125 L 18.15625 0 Z M 6.109375 0 "></path></g></g></g><g fill="#00467f" fill-opacity="1"><g transform="translate(444.566671, 361.421824)"><g><path d="M 28.78125 1.125 C 24.070312 1.125 19.898438 0.125 16.265625 -1.875 C 12.628906 -3.882812 9.773438 -6.707031 7.703125 -10.34375 C 5.640625 -13.976562 4.609375 -18.179688 4.609375 -22.953125 C 4.609375 -27.773438 5.625 -32.066406 7.65625 -35.828125 C 9.695312 -39.585938 12.519531 -42.519531 16.125 -44.625 C 19.726562 -46.726562 23.976562 -47.78125 28.875 -47.78125 C 33.445312 -47.78125 37.488281 -46.773438 41 -44.765625 C 44.507812 -42.753906 47.253906 -40.007812 49.234375 -36.53125 C 51.210938 -33.050781 52.203125 -29.179688 52.203125 -24.921875 C 52.203125 -24.234375 52.1875 -23.507812 52.15625 -22.75 C 52.125 -22 52.078125 -21.21875 52.015625 -20.40625 L 16.546875 -20.40625 C 16.796875 -16.769531 18.066406 -13.914062 20.359375 -11.84375 C 22.648438 -9.78125 25.425781 -8.75 28.6875 -8.75 C 31.132812 -8.75 33.1875 -9.296875 34.84375 -10.390625 C 36.507812 -11.484375 37.75 -12.910156 38.5625 -14.671875 L 50.78125 -14.671875 C 49.90625 -11.722656 48.445312 -9.039062 46.40625 -6.625 C 44.375 -4.21875 41.867188 -2.320312 38.890625 -0.9375 C 35.910156 0.4375 32.539062 1.125 28.78125 1.125 Z M 28.875 -38 C 25.925781 -38 23.320312 -37.164062 21.0625 -35.5 C 18.8125 -33.84375 17.367188 -31.320312 16.734375 -27.9375 L 39.96875 -27.9375 C 39.78125 -31.007812 38.648438 -33.453125 36.578125 -35.265625 C 34.515625 -37.085938 31.945312 -38 28.875 -38 Z M 28.875 -38 "></path></g></g></g><g fill="#00467f" fill-opacity="1"><g transform="translate(497.603069, 361.421824)"><g><path d="M 6.109375 0 L 6.109375 -46.640625 L 16.734375 -46.640625 L 17.6875 -38.75 C 19.125 -41.507812 21.207031 -43.703125 23.9375 -45.328125 C 26.664062 -46.960938 29.878906 -47.78125 33.578125 -47.78125 C 39.347656 -47.78125 43.828125 -45.957031 47.015625 -42.3125 C 50.210938 -38.675781 51.8125 -33.347656 51.8125 -26.328125 L 51.8125 0 L 39.78125 0 L 39.78125 -25.203125 C 39.78125 -29.210938 38.960938 -32.285156 37.328125 -34.421875 C 35.703125 -36.554688 33.164062 -37.625 29.71875 -37.625 C 26.332031 -37.625 23.554688 -36.429688 21.390625 -34.046875 C 19.234375 -31.660156 18.15625 -28.335938 18.15625 -24.078125 L 18.15625 0 Z M 6.109375 0 "></path></g></g></g><g fill="#00467f" fill-opacity="1"><g transform="translate(551.579871, 361.421824)"><g></g></g></g><g fill="#00467f" fill-opacity="1"><g transform="translate(570.762781, 361.421824)"><g><path d="M 12.609375 -53.890625 C 10.410156 -53.890625 8.601562 -54.546875 7.1875 -55.859375 C 5.78125 -57.179688 5.078125 -58.84375 5.078125 -60.84375 C 5.078125 -62.851562 5.78125 -64.5 7.1875 -65.78125 C 8.601562 -67.070312 10.410156 -67.71875 12.609375 -67.71875 C 14.796875 -67.71875 16.59375 -67.070312 18 -65.78125 C 19.414062 -64.5 20.125 -62.851562 20.125 -60.84375 C 20.125 -58.84375 19.414062 -57.179688 18 -55.859375 C 16.59375 -54.546875 14.796875 -53.890625 12.609375 -53.890625 Z M 6.578125 0 L 6.578125 -46.640625 L 18.625 -46.640625 L 18.625 0 Z M 6.578125 0 "></path></g></g></g><g fill="#00467f" fill-opacity="1"><g transform="translate(592.67278, 361.421824)"><g><path d="M 6.109375 0 L 6.109375 -46.640625 L 16.734375 -46.640625 L 17.6875 -38.75 C 19.125 -41.507812 21.207031 -43.703125 23.9375 -45.328125 C 26.664062 -46.960938 29.878906 -47.78125 33.578125 -47.78125 C 39.347656 -47.78125 43.828125 -45.957031 47.015625 -42.3125 C 50.210938 -38.675781 51.8125 -33.347656 51.8125 -26.328125 L 51.8125 0 L 39.78125 0 L 39.78125 -25.203125 C 39.78125 -29.210938 38.960938 -32.285156 37.328125 -34.421875 C 35.703125 -36.554688 33.164062 -37.625 29.71875 -37.625 C 26.332031 -37.625 23.554688 -36.429688 21.390625 -34.046875 C 19.234375 -31.660156 18.15625 -28.335938 18.15625 -24.078125 L 18.15625 0 Z M 6.109375 0 "></path></g></g></g><g fill="#00467f" fill-opacity="1"><g transform="translate(264.615335, 442.990035)"><g><path d="M 4.390625 0 L 4.390625 -45.265625 L 33.9375 -45.265625 L 33.9375 -38.59375 L 12.671875 -38.59375 L 12.671875 -26.1875 L 32 -26.1875 L 32 -19.71875 L 12.671875 -19.71875 L 12.671875 -6.65625 L 33.9375 -6.65625 L 33.9375 0 Z M 4.390625 0 "></path></g></g></g><g fill="#00467f" fill-opacity="1"><g transform="translate(298.817355, 442.990035)"><g><path d="M 4.203125 0 L 4.203125 -32.0625 L 11.515625 -32.0625 L 12.15625 -26.640625 C 13.144531 -28.535156 14.578125 -30.039062 16.453125 -31.15625 C 18.328125 -32.28125 20.535156 -32.84375 23.078125 -32.84375 C 27.046875 -32.84375 30.128906 -31.59375 32.328125 -29.09375 C 34.523438 -26.59375 35.625 -22.929688 35.625 -18.109375 L 35.625 0 L 27.34375 0 L 27.34375 -17.328125 C 27.34375 -20.085938 26.78125 -22.195312 25.65625 -23.65625 C 24.539062 -25.125 22.800781 -25.859375 20.4375 -25.859375 C 18.101562 -25.859375 16.191406 -25.039062 14.703125 -23.40625 C 13.222656 -21.769531 12.484375 -19.484375 12.484375 -16.546875 L 12.484375 0 Z M 4.203125 0 "></path></g></g></g><g fill="#00467f" fill-opacity="1"><g transform="translate(334.95905, 442.990035)"><g><path d="M 17.78125 -9.5625 C 16.226562 -9.5625 14.785156 -9.738281 13.453125 -10.09375 L 11.0625 -7.6875 C 11.789062 -7.300781 12.78125 -6.976562 14.03125 -6.71875 C 15.28125 -6.46875 17.304688 -6.210938 20.109375 -5.953125 C 24.378906 -5.554688 27.484375 -4.539062 29.421875 -2.90625 C 31.359375 -1.269531 32.328125 0.988281 32.328125 3.875 C 32.328125 5.769531 31.804688 7.566406 30.765625 9.265625 C 29.734375 10.972656 28.140625 12.351562 25.984375 13.40625 C 23.835938 14.46875 21.082031 15 17.71875 15 C 13.144531 15 9.457031 14.144531 6.65625 12.4375 C 3.851562 10.738281 2.453125 8.1875 2.453125 4.78125 C 2.453125 1.894531 3.851562 -0.601562 6.65625 -2.71875 C 5.789062 -3.101562 5.046875 -3.507812 4.421875 -3.9375 C 3.796875 -4.375 3.25 -4.828125 2.78125 -5.296875 L 2.78125 -6.78125 L 8.40625 -12.734375 C 5.90625 -14.929688 4.65625 -17.753906 4.65625 -21.203125 C 4.65625 -23.359375 5.179688 -25.316406 6.234375 -27.078125 C 7.296875 -28.847656 8.796875 -30.25 10.734375 -31.28125 C 12.671875 -32.320312 15.019531 -32.84375 17.78125 -32.84375 C 19.59375 -32.84375 21.273438 -32.582031 22.828125 -32.0625 L 34.984375 -32.0625 L 34.984375 -27.03125 L 29.484375 -26.640625 C 30.347656 -25.003906 30.78125 -23.191406 30.78125 -21.203125 C 30.78125 -19.046875 30.257812 -17.082031 29.21875 -15.3125 C 28.1875 -13.550781 26.691406 -12.148438 24.734375 -11.109375 C 22.773438 -10.078125 20.457031 -9.5625 17.78125 -9.5625 Z M 17.78125 -15.90625 C 19.457031 -15.90625 20.84375 -16.359375 21.9375 -17.265625 C 23.039062 -18.171875 23.59375 -19.460938 23.59375 -21.140625 C 23.59375 -22.828125 23.039062 -24.117188 21.9375 -25.015625 C 20.84375 -25.921875 19.457031 -26.375 17.78125 -26.375 C 16.007812 -26.375 14.582031 -25.921875 13.5 -25.015625 C 12.425781 -24.117188 11.890625 -22.828125 11.890625 -21.140625 C 11.890625 -19.460938 12.425781 -18.171875 13.5 -17.265625 C 14.582031 -16.359375 16.007812 -15.90625 17.78125 -15.90625 Z M 10.015625 3.9375 C 10.015625 5.539062 10.757812 6.738281 12.25 7.53125 C 13.738281 8.332031 15.5625 8.734375 17.71875 8.734375 C 19.78125 8.734375 21.457031 8.3125 22.75 7.46875 C 24.050781 6.625 24.703125 5.492188 24.703125 4.078125 C 24.703125 2.910156 24.28125 1.9375 23.4375 1.15625 C 22.59375 0.382812 20.921875 -0.0859375 18.421875 -0.265625 C 16.660156 -0.390625 15.023438 -0.582031 13.515625 -0.84375 C 12.265625 -0.15625 11.367188 0.597656 10.828125 1.421875 C 10.285156 2.242188 10.015625 3.082031 10.015625 3.9375 Z M 10.015625 3.9375 "></path></g></g></g><g fill="#00467f" fill-opacity="1"><g transform="translate(368.579187, 442.990035)"><g><path d="M 8.65625 -37.046875 C 7.15625 -37.046875 5.914062 -37.5 4.9375 -38.40625 C 3.96875 -39.3125 3.484375 -40.453125 3.484375 -41.828125 C 3.484375 -43.210938 3.96875 -44.34375 4.9375 -45.21875 C 5.914062 -46.101562 7.15625 -46.546875 8.65625 -46.546875 C 10.164062 -46.546875 11.40625 -46.101562 12.375 -45.21875 C 13.351562 -44.34375 13.84375 -43.210938 13.84375 -41.828125 C 13.84375 -40.453125 13.351562 -39.3125 12.375 -38.40625 C 11.40625 -37.5 10.164062 -37.046875 8.65625 -37.046875 Z M 4.53125 0 L 4.53125 -32.0625 L 12.796875 -32.0625 L 12.796875 0 Z M 4.53125 0 "></path></g></g></g><g fill="#00467f" fill-opacity="1"><g transform="translate(382.673469, 442.990035)"><g><path d="M 4.203125 0 L 4.203125 -32.0625 L 11.515625 -32.0625 L 12.15625 -26.640625 C 13.144531 -28.535156 14.578125 -30.039062 16.453125 -31.15625 C 18.328125 -32.28125 20.535156 -32.84375 23.078125 -32.84375 C 27.046875 -32.84375 30.128906 -31.59375 32.328125 -29.09375 C 34.523438 -26.59375 35.625 -22.929688 35.625 -18.109375 L 35.625 0 L 27.34375 0 L 27.34375 -17.328125 C 27.34375 -20.085938 26.78125 -22.195312 25.65625 -23.65625 C 24.539062 -25.125 22.800781 -25.859375 20.4375 -25.859375 C 18.101562 -25.859375 16.191406 -25.039062 14.703125 -23.40625 C 13.222656 -21.769531 12.484375 -19.484375 12.484375 -16.546875 L 12.484375 0 Z M 4.203125 0 "></path></g></g></g><g fill="#00467f" fill-opacity="1"><g transform="translate(418.815164, 442.990035)"><g><path d="M 19.78125 0.78125 C 16.550781 0.78125 13.6875 0.09375 11.1875 -1.28125 C 8.6875 -2.664062 6.722656 -4.609375 5.296875 -7.109375 C 3.878906 -9.609375 3.171875 -12.5 3.171875 -15.78125 C 3.171875 -19.09375 3.867188 -22.039062 5.265625 -24.625 C 6.671875 -27.21875 8.613281 -29.234375 11.09375 -30.671875 C 13.570312 -32.117188 16.488281 -32.84375 19.84375 -32.84375 C 22.988281 -32.84375 25.769531 -32.148438 28.1875 -30.765625 C 30.601562 -29.390625 32.488281 -27.503906 33.84375 -25.109375 C 35.207031 -22.722656 35.890625 -20.066406 35.890625 -17.140625 C 35.890625 -16.660156 35.875 -16.160156 35.84375 -15.640625 C 35.820312 -15.128906 35.789062 -14.59375 35.75 -14.03125 L 11.375 -14.03125 C 11.550781 -11.53125 12.425781 -9.566406 14 -8.140625 C 15.570312 -6.722656 17.476562 -6.015625 19.71875 -6.015625 C 21.394531 -6.015625 22.804688 -6.390625 23.953125 -7.140625 C 25.097656 -7.898438 25.953125 -8.882812 26.515625 -10.09375 L 34.921875 -10.09375 C 34.316406 -8.0625 33.3125 -6.210938 31.90625 -4.546875 C 30.507812 -2.890625 28.785156 -1.585938 26.734375 -0.640625 C 24.691406 0.304688 22.375 0.78125 19.78125 0.78125 Z M 19.84375 -26.125 C 17.820312 -26.125 16.035156 -25.550781 14.484375 -24.40625 C 12.929688 -23.257812 11.941406 -21.523438 11.515625 -19.203125 L 27.484375 -19.203125 C 27.347656 -21.316406 26.566406 -23 25.140625 -24.25 C 23.722656 -25.5 21.957031 -26.125 19.84375 -26.125 Z M 19.84375 -26.125 "></path></g></g></g><g fill="#00467f" fill-opacity="1"><g transform="translate(454.310289, 442.990035)"><g><path d="M 19.78125 0.78125 C 16.550781 0.78125 13.6875 0.09375 11.1875 -1.28125 C 8.6875 -2.664062 6.722656 -4.609375 5.296875 -7.109375 C 3.878906 -9.609375 3.171875 -12.5 3.171875 -15.78125 C 3.171875 -19.09375 3.867188 -22.039062 5.265625 -24.625 C 6.671875 -27.21875 8.613281 -29.234375 11.09375 -30.671875 C 13.570312 -32.117188 16.488281 -32.84375 19.84375 -32.84375 C 22.988281 -32.84375 25.769531 -32.148438 28.1875 -30.765625 C 30.601562 -29.390625 32.488281 -27.503906 33.84375 -25.109375 C 35.207031 -22.722656 35.890625 -20.066406 35.890625 -17.140625 C 35.890625 -16.660156 35.875 -16.160156 35.84375 -15.640625 C 35.820312 -15.128906 35.789062 -14.59375 35.75 -14.03125 L 11.375 -14.03125 C 11.550781 -11.53125 12.425781 -9.566406 14 -8.140625 C 15.570312 -6.722656 17.476562 -6.015625 19.71875 -6.015625 C 21.394531 -6.015625 22.804688 -6.390625 23.953125 -7.140625 C 25.097656 -7.898438 25.953125 -8.882812 26.515625 -10.09375 L 34.921875 -10.09375 C 34.316406 -8.0625 33.3125 -6.210938 31.90625 -4.546875 C 30.507812 -2.890625 28.785156 -1.585938 26.734375 -0.640625 C 24.691406 0.304688 22.375 0.78125 19.78125 0.78125 Z M 19.84375 -26.125 C 17.820312 -26.125 16.035156 -25.550781 14.484375 -24.40625 C 12.929688 -23.257812 11.941406 -21.523438 11.515625 -19.203125 L 27.484375 -19.203125 C 27.347656 -21.316406 26.566406 -23 25.140625 -24.25 C 23.722656 -25.5 21.957031 -26.125 19.84375 -26.125 Z M 19.84375 -26.125 "></path></g></g></g><g fill="#00467f" fill-opacity="1"><g transform="translate(489.805414, 442.990035)"><g><path d="M 4.203125 0 L 4.203125 -32.0625 L 11.578125 -32.0625 L 12.34375 -26.0625 C 13.507812 -28.125 15.09375 -29.769531 17.09375 -31 C 19.101562 -32.226562 21.46875 -32.84375 24.1875 -32.84375 L 24.1875 -24.109375 L 21.859375 -24.109375 C 20.046875 -24.109375 18.425781 -23.828125 17 -23.265625 C 15.582031 -22.710938 14.472656 -21.742188 13.671875 -20.359375 C 12.878906 -18.984375 12.484375 -17.066406 12.484375 -14.609375 L 12.484375 0 Z M 4.203125 0 "></path></g></g></g><g fill="#00467f" fill-opacity="1"><g transform="translate(512.240211, 442.990035)"><g><path d="M 8.65625 -37.046875 C 7.15625 -37.046875 5.914062 -37.5 4.9375 -38.40625 C 3.96875 -39.3125 3.484375 -40.453125 3.484375 -41.828125 C 3.484375 -43.210938 3.96875 -44.34375 4.9375 -45.21875 C 5.914062 -46.101562 7.15625 -46.546875 8.65625 -46.546875 C 10.164062 -46.546875 11.40625 -46.101562 12.375 -45.21875 C 13.351562 -44.34375 13.84375 -43.210938 13.84375 -41.828125 C 13.84375 -40.453125 13.351562 -39.3125 12.375 -38.40625 C 11.40625 -37.5 10.164062 -37.046875 8.65625 -37.046875 Z M 4.53125 0 L 4.53125 -32.0625 L 12.796875 -32.0625 L 12.796875 0 Z M 4.53125 0 "></path></g></g></g><g fill="#00467f" fill-opacity="1"><g transform="translate(526.334492, 442.990035)"><g><path d="M 4.203125 0 L 4.203125 -32.0625 L 11.515625 -32.0625 L 12.15625 -26.640625 C 13.144531 -28.535156 14.578125 -30.039062 16.453125 -31.15625 C 18.328125 -32.28125 20.535156 -32.84375 23.078125 -32.84375 C 27.046875 -32.84375 30.128906 -31.59375 32.328125 -29.09375 C 34.523438 -26.59375 35.625 -22.929688 35.625 -18.109375 L 35.625 0 L 27.34375 0 L 27.34375 -17.328125 C 27.34375 -20.085938 26.78125 -22.195312 25.65625 -23.65625 C 24.539062 -25.125 22.800781 -25.859375 20.4375 -25.859375 C 18.101562 -25.859375 16.191406 -25.039062 14.703125 -23.40625 C 13.222656 -21.769531 12.484375 -19.484375 12.484375 -16.546875 L 12.484375 0 Z M 4.203125 0 "></path></g></g></g><g fill="#00467f" fill-opacity="1"><g transform="translate(562.476187, 442.990035)"><g><path d="M 17.78125 -9.5625 C 16.226562 -9.5625 14.785156 -9.738281 13.453125 -10.09375 L 11.0625 -7.6875 C 11.789062 -7.300781 12.78125 -6.976562 14.03125 -6.71875 C 15.28125 -6.46875 17.304688 -6.210938 20.109375 -5.953125 C 24.378906 -5.554688 27.484375 -4.539062 29.421875 -2.90625 C 31.359375 -1.269531 32.328125 0.988281 32.328125 3.875 C 32.328125 5.769531 31.804688 7.566406 30.765625 9.265625 C 29.734375 10.972656 28.140625 12.351562 25.984375 13.40625 C 23.835938 14.46875 21.082031 15 17.71875 15 C 13.144531 15 9.457031 14.144531 6.65625 12.4375 C 3.851562 10.738281 2.453125 8.1875 2.453125 4.78125 C 2.453125 1.894531 3.851562 -0.601562 6.65625 -2.71875 C 5.789062 -3.101562 5.046875 -3.507812 4.421875 -3.9375 C 3.796875 -4.375 3.25 -4.828125 2.78125 -5.296875 L 2.78125 -6.78125 L 8.40625 -12.734375 C 5.90625 -14.929688 4.65625 -17.753906 4.65625 -21.203125 C 4.65625 -23.359375 5.179688 -25.316406 6.234375 -27.078125 C 7.296875 -28.847656 8.796875 -30.25 10.734375 -31.28125 C 12.671875 -32.320312 15.019531 -32.84375 17.78125 -32.84375 C 19.59375 -32.84375 21.273438 -32.582031 22.828125 -32.0625 L 34.984375 -32.0625 L 34.984375 -27.03125 L 29.484375 -26.640625 C 30.347656 -25.003906 30.78125 -23.191406 30.78125 -21.203125 C 30.78125 -19.046875 30.257812 -17.082031 29.21875 -15.3125 C 28.1875 -13.550781 26.691406 -12.148438 24.734375 -11.109375 C 22.773438 -10.078125 20.457031 -9.5625 17.78125 -9.5625 Z M 17.78125 -15.90625 C 19.457031 -15.90625 20.84375 -16.359375 21.9375 -17.265625 C 23.039062 -18.171875 23.59375 -19.460938 23.59375 -21.140625 C 23.59375 -22.828125 23.039062 -24.117188 21.9375 -25.015625 C 20.84375 -25.921875 19.457031 -26.375 17.78125 -26.375 C 16.007812 -26.375 14.582031 -25.921875 13.5 -25.015625 C 12.425781 -24.117188 11.890625 -22.828125 11.890625 -21.140625 C 11.890625 -19.460938 12.425781 -18.171875 13.5 -17.265625 C 14.582031 -16.359375 16.007812 -15.90625 17.78125 -15.90625 Z M 10.015625 3.9375 C 10.015625 5.539062 10.757812 6.738281 12.25 7.53125 C 13.738281 8.332031 15.5625 8.734375 17.71875 8.734375 C 19.78125 8.734375 21.457031 8.3125 22.75 7.46875 C 24.050781 6.625 24.703125 5.492188 24.703125 4.078125 C 24.703125 2.910156 24.28125 1.9375 23.4375 1.15625 C 22.59375 0.382812 20.921875 -0.0859375 18.421875 -0.265625 C 16.660156 -0.390625 15.023438 -0.582031 13.515625 -0.84375 C 12.265625 -0.15625 11.367188 0.597656 10.828125 1.421875 C 10.285156 2.242188 10.015625 3.082031 10.015625 3.9375 Z M 10.015625 3.9375 "></path></g></g></g></svg> 